<svg xmlns="http://www.w3.org/2000/svg" width="384" height="384.201" viewBox="0 0 384 384.201">
  <path id="_211652_close_icon_1_" data-name="211652_close_icon (1)" d="M443.6,387.1,312.4,255.4l131.5-130a13.882,13.882,0,0,0,0-19.6L406.5,68.2a13.759,13.759,0,0,0-9.8-4,14.19,14.19,0,0,0-9.8,4L256,197.8,124.9,68.3a13.759,13.759,0,0,0-9.8-4,14.19,14.19,0,0,0-9.8,4L68,105.9a13.882,13.882,0,0,0,0,19.6l131.5,130L68.4,387.1a13.854,13.854,0,0,0-4.1,9.8,13.449,13.449,0,0,0,4.1,9.8l37.4,37.6a13.783,13.783,0,0,0,9.8,4.1,13.543,13.543,0,0,0,9.8-4.1L256,313.1,386.7,444.2a13.783,13.783,0,0,0,9.8,4.1,13.543,13.543,0,0,0,9.8-4.1l37.4-37.6a13.854,13.854,0,0,0,4.1-9.8,14.341,14.341,0,0,0-4.2-9.7Z" transform="translate(-63.95 -64.199)" fill="#fff"/>
</svg>
