<svg xmlns="http://www.w3.org/2000/svg" width="767.827" height="857.788" viewBox="0 0 767.827 857.788">
  <g id="SVG_2" transform="translate(-689.145 -460.701)">
    <g id="Group_479" data-name="Group 479">
      <g id="Group_477" data-name="Group 477">
        <g id="Group_423" data-name="Group 423">
          <g id="Group_417" data-name="Group 417">
            <path id="Path_312" data-name="Path 312" d="M988.94,609.82c-3.69,42.36-20.74,67.59-49.27,73.02a40.408,40.408,0,0,1-7.12.59,81.623,81.623,0,0,1-14.93-1.61c-1.95-.34-3.99-.76-6.19-1.23a4.214,4.214,0,0,1-3.27-3.39,4.579,4.579,0,0,1,.04-1.65,4.226,4.226,0,0,1,5.05-3.22c.85.17,1.7.38,2.5.55,10.22,2.08,17.22,2.59,22.39,1.61,24.72-4.66,38.97-26.67,42.36-65.39.72-8.35.72-21.75.51-30.4a9.406,9.406,0,0,1-.51-3.35,25.7,25.7,0,0,1,.34-5.43c-.17-7.42-1.19-16.58-3.73-22.81h-.04a14.873,14.873,0,0,0-.72-1.65,4.064,4.064,0,0,1-.68-2.25,4.255,4.255,0,0,1,4.24-4.24,2.2,2.2,0,0,1,.51.04.4.4,0,0,1,.21.04c.13.04.3.04.42.08a4.235,4.235,0,0,1,2.63,2.12,36.411,36.411,0,0,1,2.84,7.51c2.71,9.63,2.84,20.69,2.8,24.13,0,.17.04.34.04.51a1.869,1.869,0,0,1-.04.47C989.62,580.94,989.91,598.84,988.94,609.82Z" fill="#0b0b0b"/>
          </g>
          <g id="Group_418" data-name="Group 418">
            <path id="Path_313" data-name="Path 313" d="M855.11,552.96l-.04.04a34.23,34.23,0,0,0-2.88,3.14h-.04a38.547,38.547,0,0,0-2.63,3.94c-.08.17-.17.34-.25.51v.04a27.8,27.8,0,0,0-2.93,7.89,17.84,17.84,0,0,0-.38,5.89,27.1,27.1,0,0,0,.98,5.05c.38,1.31.85,2.63,1.36,4.11.38,1.06.76,2.16,1.14,3.35a4.126,4.126,0,0,1-.3,3.18,4.284,4.284,0,0,1-2.46,2.16,4.535,4.535,0,0,1-1.31.17,4.278,4.278,0,0,1-4.03-2.93c-.17-.59-.34-1.1-.55-1.65v-.04l-.51-1.53a59.976,59.976,0,0,1-2.33-8.01,27.557,27.557,0,0,1-.3-9.37c.08-.64.21-1.31.34-1.99a.158.158,0,0,0,.04-.13,40.445,40.445,0,0,1,3.27-9.25,31.61,31.61,0,0,1,1.87-3.31,36.4,36.4,0,0,1,5-6.32c.34-.38.76-.76,1.14-1.15a4.249,4.249,0,0,1,5.8,6.21Z" fill="#0b0b0b"/>
          </g>
          <g id="Group_419" data-name="Group 419">
            <path id="Path_314" data-name="Path 314" d="M833.61,670.84a4.233,4.233,0,0,1-3.43,3.69,5.424,5.424,0,0,1-.81.08,4.059,4.059,0,0,1-1.91-.47.039.039,0,0,1-.04-.04,4.169,4.169,0,0,1-2.21-2.93s-.17-.81-.38-2.29c-.13-.81-.21-1.78-.38-2.93a162.833,162.833,0,0,1-.81-22.47v-.13a7.218,7.218,0,0,1,0-.93,4.253,4.253,0,0,1,7.8-2.16c.13.25.25.51.38.72a4.2,4.2,0,0,1,.3,1.78c-.17,4.16-.13,7.97-.04,11.32h.04c.08,3.1.25,5.81.47,8.1h.04a.2.2,0,0,0,0,.21c.17,2.16.42,3.94.59,5.26a12.264,12.264,0,0,0,.34,1.91A4.244,4.244,0,0,1,833.61,670.84Z" fill="#0b0b0b"/>
          </g>
          <g id="Group_420" data-name="Group 420">
            <path id="Path_315" data-name="Path 315" d="M1045.9,618.06c-1.44-7.59-6.06-13.23-12.68-15.48a19.664,19.664,0,0,0-6.28-1.06h-.04a24.94,24.94,0,0,0-10.86,2.33,29.24,29.24,0,0,0-7.51,4.88c-16.83,12.34-13.27,37.78-11.41,51.44l.42,2.84a31.756,31.756,0,0,1,.3,3.35,74.649,74.649,0,0,1-7,32.31v.04c-.76,1.61-1.53,3.14-2.37,4.66a83.312,83.312,0,0,1-5.09,8.35c-.98,1.44-1.99,2.8-3.05,4.16-13.95,18.28-32.35,29.47-39.39,33.37l-5.64-6.91a4.379,4.379,0,0,0-3.69-1.53,4.33,4.33,0,0,0-3.35,2.21l-8.31,15.6q-4.395.765-8.52,1.4h-.25a.179.179,0,0,0-.13.04.991.991,0,0,0-.34.04h-.08c-60.94,8.65-83.24-13.7-91.21-28.41-10.77-19.93-5.94-43.51,4.96-54.79a25.148,25.148,0,0,1,3.01-2.71.124.124,0,0,0,.08-.04,25.71,25.71,0,0,1,3.52-2.16,22.649,22.649,0,0,1,2.63-1.15c.98-.38,1.99-.72,3.05-1.02a4.14,4.14,0,0,0,2.37-1.74,2.39,2.39,0,0,1,.13-.21,2.528,2.528,0,0,1,.21-.34,4.289,4.289,0,0,0-5.01-5.9c-.51.17-1.02.3-1.53.47-.08.04-.13.04-.21.08h-.04a36.072,36.072,0,0,0-5.47,2.25q-1.335.7-2.67,1.53a31.748,31.748,0,0,0-6.19,5.05c-13.02,13.48-18.91,41.39-6.32,64.71,6.62,12.3,21.84,29.3,55.8,33.71a136.948,136.948,0,0,0,17.39,1.06c4.45,0,9.12-.17,14.08-.59.17,0,.34-.04.51-.04,4.28-.34,8.78-.85,13.44-1.57h.04c3.35-.47,6.74-1.06,10.3-1.74a4.2,4.2,0,0,0,2.93-2.12l6.32-11.79,1.61,1.99,2.2,2.67a4.31,4.31,0,0,0,5.09,1.15c.13-.08.42-.21.89-.47a.039.039,0,0,1,.04-.04c6.11-3.01,39.18-20.74,55.13-53.56v-.04a86.1,86.1,0,0,0,4.83-12.13,84.378,84.378,0,0,0,3.77-25.95,29.141,29.141,0,0,0-.21-3.01c3.94-7.08,8.95-10.09,19.76-12.13C1042.72,647.92,1049.47,636.81,1045.9,618.06Zm-21.62,24.73c-7.97,1.53-14.46,3.73-19.68,8.65-1.27-12.17-1.36-28.33,9.24-36.09a23.475,23.475,0,0,1,6.15-3.94,4.4,4.4,0,0,0,.98-.38,16.876,16.876,0,0,1,5.64-1.02,12.008,12.008,0,0,1,3.9.59c3.73,1.27,6.19,4.41,7.04,9.03C1040.26,633.97,1036.58,640.45,1024.28,642.79Z" fill="#0b0b0b"/>
          </g>
          <g id="Group_421" data-name="Group 421">
            <path id="Path_316" data-name="Path 316" d="M879.24,651.08a4.23,4.23,0,0,1-3.65-4.75,4.081,4.081,0,0,1,.47-1.48c.13-.21.25-.38.38-.59.04,0,.04-.04.08-.08a1.513,1.513,0,0,1,.38-.38,1.3,1.3,0,0,1,.47-.38c-.85.51-1.65.93-2.42,1.31a63.96,63.96,0,0,1-13.48,4.41c-6.02,1.4-11.83,2.63-17.17,1.48a18.992,18.992,0,0,1-12.47-9.63,4.2,4.2,0,0,1,.3,1.78c-.17,4.16-.13,7.97-.04,11.32h.04a28.258,28.258,0,0,0,4.66,2.84,25.73,25.73,0,0,0,5.72,1.95,23.31,23.31,0,0,0,3.86.55c.85.08,1.65.13,2.5.13a62.725,62.725,0,0,0,14.59-2.2,72.592,72.592,0,0,0,15.27-5c.68-.34,1.31-.68,1.95-1.06C880.21,651.21,879.7,651.16,879.24,651.08Zm15.43-32.4a4.649,4.649,0,0,0-4.03-4.2,4.576,4.576,0,0,0-4.96,3.01,7.747,7.747,0,0,1-1.99,2.76,33.358,33.358,0,0,1-3.05,10.13,4.147,4.147,0,0,1-2.5,2.08,33.149,33.149,0,0,0,6.57-2.63c.51-.3,1.1-.64,1.7-1.02a17.269,17.269,0,0,1-8.65,14.34.039.039,0,0,0-.04.04.977.977,0,0,0-.34.21c-.85.51-1.65.93-2.42,1.31a63.96,63.96,0,0,1-13.48,4.41c-6.02,1.4-11.83,2.63-17.17,1.48a18.992,18.992,0,0,1-12.47-9.63,4.2,4.2,0,0,1,.3,1.78c-.17,4.16-.13,7.97-.04,11.32h.04a28.258,28.258,0,0,0,4.66,2.84,25.73,25.73,0,0,0,5.72,1.95,23.31,23.31,0,0,0,3.86.55c.85.08,1.65.13,2.5.13a62.725,62.725,0,0,0,14.59-2.2,72.592,72.592,0,0,0,15.27-5c.68-.34,1.31-.68,1.95-1.06a29.957,29.957,0,0,0,8.23-6.78,20.166,20.166,0,0,0,2.8-3.94C895.48,633.69,895.35,625.98,894.67,618.68Zm0,0a4.649,4.649,0,0,0-4.03-4.2,4.576,4.576,0,0,0-4.96,3.01,7.747,7.747,0,0,1-1.99,2.76,14.5,14.5,0,0,1-2.97,2.08,24.776,24.776,0,0,1-6.91,2.46,20.256,20.256,0,0,1-2.29.38,28.179,28.179,0,0,1-3.77.13c-4.11-.21-8.23-1.4-12.55-2.63-1.65-.51-3.26-.98-4.88-1.4-.59-.13-1.15-.3-1.78-.38h-.04a43.589,43.589,0,0,0-9.33-1.23c-4.16-.04-8.27.68-11.53,2.88a13.661,13.661,0,0,0-5.89,9.67,17.915,17.915,0,0,0,.3,6.53,22,22,0,0,0,1.61,4.62v.13a26.924,26.924,0,0,0,8.44,10.6h.04a28.258,28.258,0,0,0,4.66,2.84,25.73,25.73,0,0,0,5.72,1.95,23.31,23.31,0,0,0,3.86.55c.85.08,1.65.13,2.5.13a62.725,62.725,0,0,0,14.59-2.2,72.592,72.592,0,0,0,15.27-5c.68-.34,1.31-.68,1.95-1.06a29.957,29.957,0,0,0,8.23-6.78,20.166,20.166,0,0,0,2.8-3.94C895.48,633.69,895.35,625.98,894.67,618.68Zm-33.2,30.45c-6.02,1.4-11.83,2.63-17.17,1.48a18.992,18.992,0,0,1-12.47-9.63c-.13-.21-.25-.47-.38-.72a16.128,16.128,0,0,1-1.15-3.39,9.623,9.623,0,0,1-.17-3.43,4.865,4.865,0,0,1,2.21-3.82c1.44-.98,3.69-1.44,6.49-1.44a33.63,33.63,0,0,1,5.89.55c1.1.21,2.29.47,3.48.76,1.53.42,3.1.85,4.62,1.31,4.62,1.31,9.41,2.71,14.54,2.97h1.19c1.27,0,2.54-.04,3.86-.17a33.829,33.829,0,0,0,5.43-1.06,1.225,1.225,0,0,0,.3-.08,33.149,33.149,0,0,0,6.57-2.63c.51-.3,1.1-.64,1.7-1.02a17.269,17.269,0,0,1-8.65,14.34.039.039,0,0,0-.04.04.977.977,0,0,0-.34.21c-.85.51-1.65.93-2.42,1.31A64.641,64.641,0,0,1,861.47,649.13Zm33.2-30.45a4.649,4.649,0,0,0-4.03-4.2,4.576,4.576,0,0,0-4.96,3.01,7.747,7.747,0,0,1-1.99,2.76,33.358,33.358,0,0,1-3.05,10.13,4.147,4.147,0,0,1-2.5,2.08,33.149,33.149,0,0,0,6.57-2.63c.51-.3,1.1-.64,1.7-1.02a17.269,17.269,0,0,1-8.65,14.34.039.039,0,0,0-.04.04.977.977,0,0,0-.34.21c-.85.51-1.65.93-2.42,1.31a63.96,63.96,0,0,1-13.48,4.41c-6.02,1.4-11.83,2.63-17.17,1.48a18.992,18.992,0,0,1-12.47-9.63,4.2,4.2,0,0,1,.3,1.78c-.17,4.16-.13,7.97-.04,11.32h.04a28.258,28.258,0,0,0,4.66,2.84,25.73,25.73,0,0,0,5.72,1.95,23.31,23.31,0,0,0,3.86.55c.85.08,1.65.13,2.5.13a62.725,62.725,0,0,0,14.59-2.2,72.592,72.592,0,0,0,15.27-5c.68-.34,1.31-.68,1.95-1.06a29.957,29.957,0,0,0,8.23-6.78,20.166,20.166,0,0,0,2.8-3.94C895.48,633.69,895.35,625.98,894.67,618.68Zm-15.43,32.4a4.23,4.23,0,0,1-3.65-4.75,4.081,4.081,0,0,1,.47-1.48c.13-.21.25-.38.38-.59.04,0,.04-.04.08-.08a1.513,1.513,0,0,1,.38-.38,1.3,1.3,0,0,1,.47-.38c-.85.51-1.65.93-2.42,1.31a63.96,63.96,0,0,1-13.48,4.41c-6.02,1.4-11.83,2.63-17.17,1.48a18.992,18.992,0,0,1-12.47-9.63,4.2,4.2,0,0,1,.3,1.78c-.17,4.16-.13,7.97-.04,11.32h.04a28.258,28.258,0,0,0,4.66,2.84,25.73,25.73,0,0,0,5.72,1.95,23.31,23.31,0,0,0,3.86.55c.85.08,1.65.13,2.5.13a62.725,62.725,0,0,0,14.59-2.2,72.592,72.592,0,0,0,15.27-5c.68-.34,1.31-.68,1.95-1.06C880.21,651.21,879.7,651.16,879.24,651.08Z" fill="#0b0b0b"/>
          </g>
          <g id="Group_422" data-name="Group 422">
            <path id="Path_317" data-name="Path 317" d="M918.25,695.99a4.317,4.317,0,0,1-2.71,3.6,4.631,4.631,0,0,1-1.53.25,4.283,4.283,0,0,1-2.88-1.1c-36.55-33.58-77.3-14.97-79.04-14.16a4.2,4.2,0,0,1-4.33-.42,4.155,4.155,0,0,1-1.65-4.03,45.311,45.311,0,0,1,1.27-5.94.14.14,0,0,1,.04-.08,42.315,42.315,0,0,1,4.45-10.52c.25-.38.47-.81.76-1.19a.66.66,0,0,1,.21-.3,35.488,35.488,0,0,1,3.94-5.17,37.994,37.994,0,0,1,5.72-5.3,4.243,4.243,0,1,1,5.09,6.79,15.13,15.13,0,0,0-1.23,1.02,32.794,32.794,0,0,0-7,8.1,2.019,2.019,0,0,0-.21.34,2.39,2.39,0,0,1-.13.21,31.8,31.8,0,0,0-2.76,6.06c13.95-4.16,44.4-9.2,73.36,12.34a60.978,60.978,0,0,0-1.44-9.03c0-.08-.04-.17-.04-.25-2.42-9.88-6.95-16.92-13.57-20.99a38.76,38.76,0,0,0-13.91-4.92c-.47-.08-.98-.13-1.44-.21a4.23,4.23,0,0,1-3.65-4.75,4.081,4.081,0,0,1,.47-1.48c.13-.21.25-.38.38-.59.04,0,.04-.04.08-.08a1.513,1.513,0,0,1,.38-.38,1.3,1.3,0,0,1,.47-.38.893.893,0,0,1,.34-.21.039.039,0,0,1,.04-.04,4.2,4.2,0,0,1,2.59-.47,51.063,51.063,0,0,1,8.57,1.82,44.414,44.414,0,0,1,10.13,4.49c8.01,4.92,13.65,12.93,16.71,23.87a25.463,25.463,0,0,1,.72,2.63c.51,2.21.89,4.33,1.15,6.32A73.7,73.7,0,0,1,918.25,695.99Z" fill="#0b0b0b"/>
          </g>
        </g>
        <g id="Group_424" data-name="Group 424">
          <path id="Path_318" data-name="Path 318" d="M1209.31,1208.83l-10.43,19.12,1.53,3.39,3.56,7.76,2.21,4.83,1.53,3.35a4.252,4.252,0,0,1-1.99,5.6c-.34.13-.68.21-.98.34a6.682,6.682,0,0,1-.89.08,4.25,4.25,0,0,1-3.86-2.5l-1.87-4.11-3.52-7.72a4.109,4.109,0,0,1-.3-.59.394.394,0,0,1-.04-.21l-3.94-8.61a4.313,4.313,0,0,1,.13-3.82l10.35-18.91-13.7-24.81a4.255,4.255,0,0,1-.17-3.73l8.4-19.51.47-1.06,3.18-7.42c-25.53,1.61-111.57,4.24-145.02-30.45a34.7,34.7,0,0,1-2.88-3.18,4.288,4.288,0,0,1,.59-5.98c.04-.04.08-.04.13-.08a4.21,4.21,0,0,1,5.85.68c.25.3.51.59.76.89h.04a52.981,52.981,0,0,0,12.3,10.39h.04c42.79,26.93,133.4,18.87,134.42,18.79a4.278,4.278,0,0,1,3.86,1.7,4.486,4.486,0,0,1,.47,4.2l-4.66,10.86-3.39,7.8-5.94,13.82,13.78,25.02A4.156,4.156,0,0,1,1209.31,1208.83Z" fill="#0b0b0b"/>
        </g>
        <g id="Group_425" data-name="Group 425">
          <path id="Path_319" data-name="Path 319" d="M1196.13,1254.11a4.235,4.235,0,0,1-1.82,3.82c-.17.08-.34.21-.51.3a3.981,3.981,0,0,1-1.57.42c-3.82.25-8.4.51-12.98.76-2.84.17-5.68.3-8.35.42l-6.23.34c-17.51.98-35.32,1.78-52.58,2.5-11.15.51-22.35.98-33.5,1.53-5.22.25-10.35.68-15.44,1.06-8.18.64-16.54,1.27-24.98,1.27a111.93,111.93,0,0,1-29.77-3.6,117.7,117.7,0,0,1-40.54-20.14c-1.19-.81-2.33-1.74-3.48-2.67a153.6,153.6,0,0,1-24-24.59c-1.78-2.29-3.56-4.62-5.26-7.04-16.24-22.81-28.2-49.99-36.98-77.35-.47-1.48-.98-3.01-1.4-4.49-4.71-15.22-8.44-30.4-11.41-44.86-.85-4.11-1.61-8.14-2.33-12.09v-.04a606.469,606.469,0,0,1-8.61-70.22c-.04-1.36-.13-2.59-.17-3.69a4.287,4.287,0,0,1,4.03-4.45,4.229,4.229,0,0,1,4.45,4.03c.08,1.4.17,3.01.25,4.79,1.4,21.84,6.02,72.05,21.29,122.46.81,2.76,1.65,5.47,2.54,8.14,12.64,38.84,31.8,76.84,60.89,101.22,2.16,1.82,4.37,3.56,6.66,5.26a111.555,111.555,0,0,0,36.3,17.56c17.34,4.75,34.09,3.43,51.82,2.08,5.17-.42,10.39-.85,15.69-1.1l33.58-1.53c17.17-.72,34.98-1.48,52.45-2.46l6.28-.34c6.66-.38,14.38-.76,20.31-1.19h.04c.25,0,.55-.04.81-.04A4.282,4.282,0,0,1,1196.13,1254.11Z" fill="#0b0b0b"/>
        </g>
        <g id="Group_426" data-name="Group 426">
          <path id="Path_320" data-name="Path 320" d="M990.69,706.65a4.161,4.161,0,0,1-1.61,3.77,3.466,3.466,0,0,1-.47.34,4.534,4.534,0,0,1-1.7.55c-1.19.13-2.33.3-3.52.42a84.46,84.46,0,0,0,5.09-8.35A4.118,4.118,0,0,1,990.69,706.65Z" fill="#0b0b0b"/>
        </g>
        <g id="Group_427" data-name="Group 427">
          <path id="Path_321" data-name="Path 321" d="M1167.46,1089.33c-.3-1.06-30.62-109.06-33.08-203.03-.17-6.32-.64-13.02-1.48-20.06v-.08c-.04-.3-.08-.59-.13-.93.04-.04,0-.08,0-.13-5.05-40.92-21.33-91.51-49.74-127.09-1.87-2.37-3.82-4.66-5.77-6.87-2.84-3.18-5.81-6.19-8.86-9.03-2.37-2.2-4.83-4.33-7.34-6.36a108.764,108.764,0,0,0-15.52-10.3c-2.29-1.27-4.58-2.42-6.95-3.48a4.1,4.1,0,0,0-4.03.3.976.976,0,0,0-.34.21,4.222,4.222,0,0,0,.89,7.21c.72.34,1.4.64,2.12.98a100.071,100.071,0,0,1,19.63,12.55l.08.08c.38.3.72.59,1.1.93.04.04.08.04.13.08a119.09,119.09,0,0,1,13.82,13.61l.04.04a12.957,12.957,0,0,1,1.48,1.7c.04.04.04.04.08.04,28.28,33.16,44.78,82.39,50.25,122.89q.63,4.26,1.02,8.4c.55,5.39.89,10.6,1.02,15.52.25,10.01.81,20.14,1.65,30.32.3,3.73.64,7.46.98,11.15,7.17,73.74,25.78,145.41,29.94,160.67q-6.675,4.4-13.74,8.27c-2.33-1.74-7.04-7.8-9.97-11.58-7.68-9.88-12.76-16.41-18.28-14.12-4.92,1.99-4.58,8.74-3.39,23.83.38,4.83.93,11.83.59,14.8a113.737,113.737,0,0,1-55.25,2.33h-.04c-2.25-.47-4.45-.98-6.62-1.57-90.15-24.43-142.73-153.72-143.33-155.33a4.283,4.283,0,0,0-5.51-2.37,4.2,4.2,0,0,0-2.37,5.51,365.7,365.7,0,0,0,16.71,34.31c1.48,2.71,3.05,5.55,4.75,8.48,24.68,42.74,69.84,104.19,131.92,118.65a109.84,109.84,0,0,0,16.79,2.71h.04c3.39.3,6.87.47,10.35.47a127.929,127.929,0,0,0,36.72-5.55c5.39-1.65,4.83-8.82,3.69-23.11-.3-3.65-.72-8.99-.72-12.68,2.25,2.42,5.09,6.11,7.25,8.86,7.93,10.22,13.65,17.64,19.55,14.42a198.47,198.47,0,0,0,18.15-10.98A4.193,4.193,0,0,0,1167.46,1089.33Z" fill="#0b0b0b"/>
        </g>
        <g id="Group_428" data-name="Group 428">
          <path id="Path_322" data-name="Path 322" d="M942.16,1214.81s-.64.25-1.78.72c-3.94,1.57-13.87,5.77-25.91,11.87-.21.13-.42.21-.64.34-19.08,9.8-34.64,19.8-46.22,29.9a8.2,8.2,0,0,1-.59.59c-11.53,10.05-18.7,19.93-21.37,29.39a4.2,4.2,0,0,1-2.97,2.97,5.482,5.482,0,0,1-1.1.13,4.3,4.3,0,0,1-2.97-1.19c-.3-.3-6.28-6.15-15.1-16.33-1.23-1.44-2.5-2.97-3.86-4.58-.59-.72-1.23-1.48-1.87-2.25-17.77-21.58-40.41-53.6-53.3-89.43-.72-2.04-1.4-4.03-2.08-6.06a4.256,4.256,0,0,1,.98-4.28l.08-.08a4.885,4.885,0,0,1,1.65-.98,4.261,4.261,0,0,1,5.34,2.71c.25.81.55,1.61.85,2.42,12.68,37.27,36.68,70.77,54.87,92.48,5.64,6.74,10.43,12.09,13.74,15.56,3.77-8.4,10.35-16.79,19.59-25.15.59-.55,1.19-1.1,1.78-1.61l.38-.38c1.53-1.31,3.1-2.67,4.75-3.94,10.94-8.86,24.68-17.6,41.01-26.12.93-.51,1.91-1.02,2.88-1.53,1.7-.85,3.35-1.65,4.92-2.42,8.61-4.24,15.73-7.34,19.89-9.07,2.42-.98,3.82-1.53,3.99-1.61a4.25,4.25,0,0,1,3.06,7.93Z" fill="#0b0b0b"/>
        </g>
        <g id="Group_429" data-name="Group 429">
          <path id="Path_323" data-name="Path 323" d="M891.02,1072.75c-.34.64-2.29,3.99-5.68,9.03-13.99,20.65-52.28,69.88-104.82,77.09-.68.13-1.4.21-2.12.3h-.47a4.188,4.188,0,0,1-4.2-3.73,3.9,3.9,0,0,1,.51-2.54c.04-.04.04-.13.08-.17a4.26,4.26,0,0,1,3.1-1.99c2.54-.3,5.09-.72,7.59-1.23,54.7-11.03,92.27-70.31,98-79.81v-.04c.34-.59.59-.98.68-1.15a4.285,4.285,0,0,1,5.81-1.57A4.234,4.234,0,0,1,891.02,1072.75Z" fill="#0b0b0b"/>
        </g>
        <g id="Group_430" data-name="Group 430">
          <path id="Path_324" data-name="Path 324" d="M992.46,1210.27l-18.11,26.93-2.5,3.73a4.283,4.283,0,0,1-3.52,1.91,1.866,1.866,0,0,1-.47-.04,4.012,4.012,0,0,1-1.91-.68,4.06,4.06,0,0,1-1.57-1.99,4.169,4.169,0,0,1,.42-3.9l2.88-4.28,15.69-23.36c-14.8-15.69-42.83-69.84-50.38-84.72l-26.21,6.87-4.92,1.27a4.145,4.145,0,0,1-3.73-.85,4.309,4.309,0,0,1-1.44-2.21,4.225,4.225,0,0,1,.04-2.29,4.284,4.284,0,0,1,3.01-2.88l4.49-1.19,29.94-7.8A4.163,4.163,0,0,1,939,1117c10.77,21.41,41.17,78.91,52.5,87.57A4.209,4.209,0,0,1,992.46,1210.27Z" fill="#0b0b0b"/>
        </g>
        <g id="Group_431" data-name="Group 431">
          <path id="Path_325" data-name="Path 325" d="M1135.1,921.11a83.646,83.646,0,0,1-6.57,6.87c-43.63,41.64-127.72,48.47-131.45,48.77h-.34a4.254,4.254,0,0,1-3.82-2.42l-7.85-16.41-3.82-8.01-6.23-13.02a4.471,4.471,0,0,1-.25-2.97l8.48-30.83-9.33-17.77-4.41-8.48-3.35-6.36a4.275,4.275,0,0,1,.21-4.33,4.352,4.352,0,0,1,3.94-1.87c.34.04,13.78,1.27,33.97,2.21,2.67.13,5.47.25,8.35.38,31.21,1.14,74.46,1.23,111.23-4.28,1.4-.21,2.76-.42,4.11-.64a4.271,4.271,0,0,1,4.79,3.14c0,.04.04.08,0,.13a.609.609,0,0,1,.08.25,3.877,3.877,0,0,1,.04.68v.08a4.256,4.256,0,0,1-3.56,4.07c-1.48.25-2.97.47-4.45.68-55.34,8.27-124.71,4.11-147.61,2.37l14.29,27.27a4.156,4.156,0,0,1,.34,3.1l-8.52,30.91,7.93,16.62L999.31,968c15.82-1.7,92.78-11.62,128.23-51.18.38-.42.76-.85,1.14-1.27a4.247,4.247,0,1,1,6.42,5.56Z" fill="#0b0b0b"/>
        </g>
        <g id="Group_432" data-name="Group 432">
          <path id="Path_326" data-name="Path 326" d="M991.78,952.75a4.18,4.18,0,0,1-3.6,4.75l-3.1.42-31.76,4.41a2.55,2.55,0,0,1-.55.04,4.252,4.252,0,0,1-3.05-1.23,4.327,4.327,0,0,1-1.15-3.65c.21-1.36.42-2.93.55-4.71.3-2.54.51-5.47.72-8.65,1.4-22.3,1.57-57.67,1.57-62.5v-.55a4.255,4.255,0,0,1,4.24-4.24h20.86a4.24,4.24,0,0,1,0,8.48H959.89c-.08,12.55-.47,49.32-2.25,67.89l23.62-3.31,5.72-.81a4.31,4.31,0,0,1,4.33,2.16A3.8,3.8,0,0,1,991.78,952.75Z" fill="#0b0b0b"/>
        </g>
        <g id="Group_433" data-name="Group 433">
          <path id="Path_327" data-name="Path 327" d="M956.5,885.24a2.892,2.892,0,0,1-.85.08,4.268,4.268,0,0,1-4.16-3.35c0-.04-.04-.17-.08-.34-.55-2.04-3.94-11.96-17.22-16.07a3.38,3.38,0,0,1-.68-.21,44.169,44.169,0,0,0-12.25-1.57c-7.55,0-10.81,1.61-11.7,2.33a1.161,1.161,0,0,0,.21.25c1.14,1.31,4.92,3.94,14.29,5.81a4.236,4.236,0,0,1-1.65,8.31c-8.61-1.7-14.84-4.37-18.32-7.72a.039.039,0,0,0-.04-.04,9.078,9.078,0,0,1-3.1-7.46,7.265,7.265,0,0,1,.55-2.16c1.36-3.31,5.77-7.8,19.76-7.8a54.334,54.334,0,0,1,11.03,1.06,40.219,40.219,0,0,1,8.1,2.46,33.57,33.57,0,0,1,18.28,18.02,19.262,19.262,0,0,1,1.15,3.39A4.247,4.247,0,0,1,956.5,885.24Z" fill="#0b0b0b"/>
        </g>
        <g id="Group_434" data-name="Group 434">
          <path id="Path_328" data-name="Path 328" d="M913.5,901.56a23.406,23.406,0,0,1-6.95,1.02c-7.34,0-14.42-3.14-19.21-6.7a24.925,24.925,0,0,1-1.99-1.61,23.729,23.729,0,0,1-6.28-7.93,12.222,12.222,0,0,1-1.27-5.26c0-11.45,5.94-19.17,14.76-19.17a38.515,38.515,0,0,1,8.95,1.19,46.332,46.332,0,0,1,6.74,2.16,4.535,4.535,0,0,1,1.53,1.1,4.158,4.158,0,0,1,.72,4.45,4.2,4.2,0,0,1-5.55,2.25s-.34-.13-.85-.3a.039.039,0,0,0-.04-.04,36.376,36.376,0,0,0-11.49-2.33c-6.06,0-6.28,9.58-6.28,10.69a5.7,5.7,0,0,0,.93,2.59,3.074,3.074,0,0,1,.3.47,20.228,20.228,0,0,0,4.88,4.92c4.66,3.48,12,6.45,18.62,4.41a4.2,4.2,0,0,1,5.3,2.8A4.247,4.247,0,0,1,913.5,901.56Z" fill="#0b0b0b"/>
        </g>
        <g id="Group_435" data-name="Group 435">
          <path id="Path_329" data-name="Path 329" d="M910.7,912.89a4.223,4.223,0,0,1-3.99,4.49c-1.44.08-2.88.13-4.24.13a43.881,43.881,0,0,1-12.59-1.61,21.091,21.091,0,0,1-7.84-4.11,14.565,14.565,0,0,1-3.18-3.65c-4.88-7.76-1.61-17.56.21-21.8a22.448,22.448,0,0,1,1.06-2.12,4.224,4.224,0,0,1,5.77-1.65,4.733,4.733,0,0,1,1.31,1.1,3.074,3.074,0,0,1,.3.47,4.147,4.147,0,0,1,.04,4.16,22.512,22.512,0,0,0-2.2,5.98c-.76,3.14-.98,6.7.72,9.37a7.8,7.8,0,0,0,2.97,2.76c3.56,2.08,9.41,2.93,17.22,2.5A4.254,4.254,0,0,1,910.7,912.89Z" fill="#0b0b0b"/>
        </g>
        <g id="Group_436" data-name="Group 436">
          <path id="Path_330" data-name="Path 330" d="M913.12,935.19a55.187,55.187,0,0,1-11.62,1.36c-.55,0-1.1,0-1.61-.04a24.173,24.173,0,0,1-9.46-2.08,15.581,15.581,0,0,1-5.3-3.99c-5.09-5.89-4.16-14.12-3.1-18.66a21.985,21.985,0,0,1,.93-3.22,4.238,4.238,0,0,1,5.47-2.46,2.341,2.341,0,0,1,.59.3,4.244,4.244,0,0,1,1.87,5.17,19.476,19.476,0,0,0-1.02,4.33,18.154,18.154,0,0,0-.21,2.71,9.6,9.6,0,0,0,1.91,6.32c2.93,3.39,9.75,4.07,19.8,1.99a4.227,4.227,0,0,1,1.75,8.27Z" fill="#0b0b0b"/>
        </g>
        <g id="Group_437" data-name="Group 437">
          <path id="Path_331" data-name="Path 331" d="M958.02,947.06a4.269,4.269,0,0,1-3.48,4.88c-1.87.34-3.65.59-5.43.85a140,140,0,0,1-20.74,1.7c-13.53,0-23.75-2.63-30.49-7.84-6.74-5.17-7.42-11.07-7.46-11.7v-.51a4.235,4.235,0,0,1,8.44-.34,7.5,7.5,0,0,0,1.02,2.42,12.4,12.4,0,0,0,3.56,3.73c5.85,4.24,18.62,8.27,46.39,3.9,1.06-.17,2.16-.34,3.27-.55A4.269,4.269,0,0,1,958.02,947.06Z" fill="#0b0b0b"/>
        </g>
        <g id="Group_438" data-name="Group 438">
          <path id="Path_332" data-name="Path 332" d="M1225.43,1167.31a4.247,4.247,0,0,1-4.24,4.2h-.04a30.184,30.184,0,0,1-3.94-.3,47.9,47.9,0,0,1-15.73-5.3,44.573,44.573,0,0,1-4.41-2.59,4.317,4.317,0,0,1-1.74-4.54l.47-1.06a1.03,1.03,0,0,1,.17-.3,4.225,4.225,0,0,1,5.89-1.1,26.2,26.2,0,0,0,3.01,1.78,41.874,41.874,0,0,0,11.7,4.41,23.854,23.854,0,0,0,4.62.51A4.3,4.3,0,0,1,1225.43,1167.31Z" fill="#0b0b0b"/>
        </g>
        <g id="Group_439" data-name="Group 439">
          <path id="Path_333" data-name="Path 333" d="M1223.26,1229.94a4.2,4.2,0,0,1-3.52,4.83c-1.95.3-3.99.76-5.98,1.27-3.65.93-7.21,2.12-9.8,3.05-2.46.89-4.07,1.57-4.11,1.57a4.523,4.523,0,0,1-1.61.3,4.324,4.324,0,0,1-3.65-1.99,4.109,4.109,0,0,1-.3-.59.394.394,0,0,1-.04-.21,4.22,4.22,0,0,1,2.33-5.34c.17-.08,1.61-.68,3.82-1.48a110.206,110.206,0,0,1,14.93-4.37c1.02-.25,2.08-.42,3.1-.59A4.214,4.214,0,0,1,1223.26,1229.94Z" fill="#0b0b0b"/>
        </g>
        <g id="Group_443" data-name="Group 443">
          <g id="Group_440" data-name="Group 440">
            <path id="Path_334" data-name="Path 334" d="M1291.66,1197.72v-.04c-1.14-12.72-3.52-24.43-7.04-33.63a54.722,54.722,0,0,0-3.9-8.48,28.121,28.121,0,0,0-2.04-3.22c-11.15-15.56-29.6-18.4-51.95-8.06a17.784,17.784,0,0,0-10.22,17.6c0,.21.04.42.04.64.21,2.37.42,5.34.64,8.69.81,14.08,1.19,35.49-1.87,55.76-.42,3.05-.98,6.11-1.57,9.07q-.7,3.315-1.53,6.49c-2.12.42-4.16.89-6.06,1.4a62.242,62.242,0,0,0-8.06,2.76,55.547,55.547,0,0,0-7.29,3.52h-.04a48.632,48.632,0,0,0-11.53,9.2c-9.75,10.43-10.98,21.46-11.03,21.88,0,14.16,15.05,27.9,15.99,28.75.72.51,11.83,8.44,30.96,8.44,1.06,0,2.16-.04,3.27-.08.55,0,1.1-.04,1.65-.08,10.18-.72,22.35-3.69,36.13-10.86,14.76-7.68,25.65-24.72,31.51-49.27a190.256,190.256,0,0,0,4.71-44.36C1292.38,1208.36,1292.13,1202.97,1291.66,1197.72Zm-12.17,58.47c-3.69,15.44-11.41,35.53-27.18,43.72a94.826,94.826,0,0,1-12.76,5.56,72.8,72.8,0,0,1-21.12,4.41c-17.3.98-27.52-5.51-29.05-6.57-3.65-3.39-12.51-13.31-12.68-21.75.25-1.87,2.46-14.42,17.09-23.32.17-.08.34-.21.51-.3a50.086,50.086,0,0,1,10.43-4.71c.3-.13.64-.21.98-.34a83.8,83.8,0,0,1,21.37-3.56,4.225,4.225,0,1,0-.42-8.44c-1.87.08-3.65.21-5.34.38,6.66-28.58,5.22-62.08,3.65-80.1a9.374,9.374,0,0,1,5.34-9.2c6.49-3.01,14.12-5.47,21.54-5.26a24.138,24.138,0,0,1,10.77,2.54,24.771,24.771,0,0,1,9.16,8.01,30.376,30.376,0,0,1,2.46,4.11,5.151,5.151,0,0,0,.42.81C1283.78,1180.97,1287.72,1221.8,1279.49,1256.19Z" fill="#0b0b0b"/>
          </g>
          <g id="Group_441" data-name="Group 441">
            <path id="Path_335" data-name="Path 335" d="M1262.62,1149.25a83.5,83.5,0,0,0-4.62-8.82,4.179,4.179,0,0,0-5.81-1.44,4.257,4.257,0,0,0-1.44,5.81c.38.64.76,1.27,1.1,1.91,8.99,15.82,13.7,37.02,14.12,63.1,1.1,74.29-40.2,96.72-47.54,100.07a2.317,2.317,0,0,1-.51.25c-.04,0-.08.04-.13.04a4.231,4.231,0,0,0,.63,8.22,3.877,3.877,0,0,0,.68.04,3.669,3.669,0,0,0,.98-.13.9.9,0,0,0,.3-.08,2,2,0,0,1,.21-.04,2.25,2.25,0,0,0,.55-.21c1.99-.85,9.58-4.45,18.4-12.51,15.82-14.33,35.7-42.96,34.9-95.79C1274.11,1185.63,1270.12,1165.36,1262.62,1149.25Z" fill="#0b0b0b"/>
          </g>
          <g id="Group_442" data-name="Group 442">
            <path id="Path_336" data-name="Path 336" d="M1293.74,1212.68a4.726,4.726,0,0,1-1.31,1.14,4.092,4.092,0,0,1-2.12.55,4.21,4.21,0,0,1-2.5-.81,4.259,4.259,0,0,1-.89-5.94,32.058,32.058,0,0,0,4.75-9.92v-.04c3.65-12.3,1.99-27.14.98-33.63h-14.46a4.218,4.218,0,0,1-3.52-1.87,4.125,4.125,0,0,1-.42-.81,4.71,4.71,0,0,1-.3-1.57,4.255,4.255,0,0,1,4.24-4.24h18.02a4.276,4.276,0,0,1,4.16,3.35C1300.65,1160.32,1307.73,1193.73,1293.74,1212.68Z" fill="#0b0b0b"/>
          </g>
        </g>
        <g id="Group_447" data-name="Group 447">
          <g id="Group_444" data-name="Group 444">
            <path id="Path_337" data-name="Path 337" d="M786.88,1280.07a4.219,4.219,0,0,1-1.99,5.64c-.68.34-1.4.64-2.08.93a31.568,31.568,0,0,1-12.13,2.46,33.512,33.512,0,0,1-13.44-2.88,35.277,35.277,0,0,1-3.43-1.7c-.76-.42-1.53-.89-2.29-1.36a59.63,59.63,0,0,1-5.43-3.86c-7.63-6.02-15.77-14.71-23.45-25.06-3.14-4.24-6.19-8.69-9.07-13.4-20.02-32.18-33.08-73.4-17.64-98.84,7.04-11.62,15.35-20.95,24.85-27.65.04-.04.04-.08.08-.08.08-.08.17-.21.25-.21a1.16,1.16,0,0,1,.25-.21c.04-.08.08-.13.13-.08a.039.039,0,0,1,.04-.04c.38-.25.81-.55,1.19-.76a.039.039,0,0,1,.04-.04c17.68-11.79,32.69-10.56,33.37-10.52,1.23.21,21.2,4.16,28.54,16.28.47.89,6.53,13.78.34,30.83a48.4,48.4,0,0,1-3.39,7.51c-.34.64-.72,1.23-1.1,1.87a66.935,66.935,0,0,1-9.2,11.79c-.64.68-1.27,1.31-1.95,1.95-1.53,1.48-3.14,2.93-4.88,4.33a94.049,94.049,0,0,1-8.69,6.57,4.226,4.226,0,1,1-4.75-6.99,95.229,95.229,0,0,0,12.34-9.92l.08-.08a59.713,59.713,0,0,0,10.77-13.61c.04-.04.04-.13.08-.17,9.16-16.75,2.97-29.9,2.93-30.02-4.24-6.95-17.09-10.9-22.05-11.87-1.65-.13-14.04-.25-28.33,9.54-.04,0-.04.04-.08.08a.508.508,0,0,0-.34.17.927.927,0,0,1-.25.17A78.455,78.455,0,0,0,711.19,1135a100.369,100.369,0,0,0-8.01,11.41c-20.91,34.56,22.69,110.25,52.58,129.42.13.08.25.17.38.25a30.688,30.688,0,0,0,4.49,2.42,24.043,24.043,0,0,0,11.92,2.08,22.991,22.991,0,0,0,8.65-2.46A4.237,4.237,0,0,1,786.88,1280.07Z" fill="#0b0b0b"/>
          </g>
          <g id="Group_445" data-name="Group 445">
            <path id="Path_338" data-name="Path 338" d="M826.65,1267.81c-1.02,1.91-2.04,3.73-3.14,5.39-5.6,8.69-12.42,14.08-20.23,16.03a26.379,26.379,0,0,1-6.62.85,30.819,30.819,0,0,1-13.87-3.43c-.89-.47-1.57-.85-1.87-1.06a85.341,85.341,0,0,1-8.4-5.05c-14.76-9.88-28.67-25.19-41.43-45.54-28.16-44.78-25.99-79.55-19.93-100.03,3.35-11.45,7.97-18.4,9.24-20.18a3.088,3.088,0,0,1,.34-.42c.04-.04.04-.08.08-.08.08-.08.17-.21.25-.21a1.16,1.16,0,0,1,.25-.21c.04-.08.08-.17.17-.13a2.258,2.258,0,0,1,1.19-.76.039.039,0,0,1,.04-.04,4.237,4.237,0,0,1,4.03.68,4.3,4.3,0,0,1,.68,5.98.53.53,0,0,1-.21.21,3.78,3.78,0,0,0-.38.59c-.04,0-.04.04-.08.08-4.83,7.34-27.65,47.75,11.53,110.04,14.38,22.98,30.11,39.01,46.73,47.66a3.887,3.887,0,0,0,.42.25c.04.04,7.34,4.79,15.86,2.59,6.23-1.61,11.75-6.53,16.45-14.63.47-.81.93-1.61,1.36-2.46a4.211,4.211,0,0,1,5.72-1.78A4.109,4.109,0,0,1,826.65,1267.81Z" fill="#0b0b0b"/>
          </g>
          <g id="Group_446" data-name="Group 446">
            <path id="Path_339" data-name="Path 339" d="M756.01,1283.16l-2.21,1.36-13.19,8.01a4.145,4.145,0,0,1-2.21.59,4.221,4.221,0,0,1-3.1-1.31c-.98-1.02-24.38-25.91-22.26-49.36a3.364,3.364,0,0,1,.51-1.61,4.214,4.214,0,0,1,7.93,2.37,31.914,31.914,0,0,0,1.14,11.03c3.31,12.38,12.34,24.17,16.58,29.22l6.87-4.16,5.51-3.35a4.262,4.262,0,0,1,4.16-.17c.13.08.25.17.38.25a4.23,4.23,0,0,1-.11,7.13Z" fill="#0b0b0b"/>
          </g>
        </g>
        <g id="Group_448" data-name="Group 448">
          <path id="Path_340" data-name="Path 340" d="M1060.83,695.03a4.138,4.138,0,0,1-2.46,3.77c-4.41,2.04-8.69,4.24-12.81,6.66-2.84,1.65-5.6,3.39-8.31,5.22a173.539,173.539,0,0,0-24,19.72c-2.12,2.04-4.2,4.2-6.28,6.36-42.23,45.03-62.08,106.52-66.58,122.08-.68,2.29-.98,3.56-1.02,3.69a4.255,4.255,0,0,1-4.11,3.18,4.51,4.51,0,0,1-1.06-.13,3.38,3.38,0,0,1-.68-.21,4.262,4.262,0,0,1-2.37-4.92c.13-.47.47-1.87,1.14-4.07,5.77-20.48,34.43-109.87,101.94-153.89a.892.892,0,0,1,.34-.21c3.56-2.33,7.25-4.54,11.03-6.57-10.22-2.37-27.94-3.48-47.87,8.65v.04a79.512,79.512,0,0,0-8.65,6.02,3.466,3.466,0,0,1-.47.34c-1.57,1.27-3.18,2.63-4.79,4.11a4.14,4.14,0,0,1-3.48,1.02c1.06-1.36,2.08-2.71,3.05-4.16a84.46,84.46,0,0,0,5.09-8.35c.85-1.53,1.61-3.05,2.37-4.66v-.04a81.822,81.822,0,0,1,11.7-6.45c30.36-13.65,54.7-1.7,55.97-1.06A4.194,4.194,0,0,1,1060.83,695.03Z" fill="#0b0b0b"/>
        </g>
        <g id="Group_449" data-name="Group 449">
          <path id="Path_341" data-name="Path 341" d="M1077.82,792.5a4.426,4.426,0,0,1-2.5,2.29c-.64.21-65.68,23.62-62.59,71.07a2.939,2.939,0,0,1-.08,1.02,4.168,4.168,0,0,1-3.86,3.48.753.753,0,0,1-.3.04,4.248,4.248,0,0,1-4.2-3.9v-.08c-3.05-46.69,48.21-71.49,63.86-77.94-14.08-27.22-50.84-46.65-61.19-51.73-1.7-.81-2.67-1.23-2.76-1.27a4.242,4.242,0,0,1,3.43-7.76c.42.17,2.46,1.06,5.6,2.67,14.29,7.21,51.82,28.5,64.58,58.73A4.268,4.268,0,0,1,1077.82,792.5Z" fill="#0b0b0b"/>
        </g>
        <g id="Group_450" data-name="Group 450">
          <path id="Path_342" data-name="Path 342" d="M928.51,996.85a4.239,4.239,0,0,1-4.16,4.33c-.25.04-1.06.04-2.33.04-1.1.04-2.54.04-4.33.04-7.55,0-20.61-.17-34.73-1.15-2.84-.17-5.68-.38-8.57-.68-11.19-.98-22.43-2.54-31.63-4.92a4.222,4.222,0,0,1-1.57-7.42l28.88-23.15c-8.23-3.27-19.72-10.13-19.72-23.03,0-4.66,1.78-20.44,5.39-40.96v-.17c1.19-6.66,2.54-13.78,4.07-21.2a.894.894,0,0,1,.08-.3c2.42-11.83,5.39-24.34,8.78-36.64v-.04a329.783,329.783,0,0,1,14.46-42.45c0-.04.04-.08.04-.13a153.524,153.524,0,0,1,10.05-19.93.179.179,0,0,1,.04-.13,79.407,79.407,0,0,1,6.19-8.78,2.5,2.5,0,0,1,.25-.34,47.335,47.335,0,0,1,9.29-9.03,4.281,4.281,0,0,1,1.61-.72h.08a.991.991,0,0,1,.34-.04.158.158,0,0,1,.13-.04h.25a4.391,4.391,0,0,1,3.52,1.78,4.24,4.24,0,0,1-.98,5.89c-.25.17-.51.38-.76.59h-.04c-4.16,3.22-8.1,7.97-11.83,13.87a148.909,148.909,0,0,0-10.69,20.99c0,.04-.04.08-.04.13a314.147,314.147,0,0,0-10.9,31c0,.04-.04.04-.04.08-4.41,14.84-8.23,30.45-11.28,44.99-.04.08-.04.17-.08.25-1.53,7.29-2.88,14.29-4.07,20.86v.08c-.3,1.57-.55,3.14-.81,4.62v.04c-3.01,17.39-4.58,30.79-4.58,35.7,0,12.68,20.74,17.17,20.95,17.22a4.268,4.268,0,0,1,1.78,7.46l-28.16,22.56c21.75,3.99,50.76,4.58,63.86,4.58,4.24,0,6.78-.04,6.91-.04h.08A4.318,4.318,0,0,1,928.51,996.85Z" fill="#0b0b0b"/>
        </g>
        <g id="Group_451" data-name="Group 451">
          <path id="Path_343" data-name="Path 343" d="M861.04,818.11a18.048,18.048,0,0,1-10.26,6.23v.04a22.608,22.608,0,0,1-4.88.51,4.212,4.212,0,0,1-3.56-1.95,4.3,4.3,0,0,1-.68-2.29,3.2,3.2,0,0,1,.25-1.27v-.04a4.162,4.162,0,0,1,3.99-2.93,13.914,13.914,0,0,0,3.86-.51,9.792,9.792,0,0,0,4.75-3.18c2.54-3.1,3.48-7.97,2.46-13.06a28.678,28.678,0,0,0-2.12-6.4c0-.04-.04-.08-.04-.13l-.51-1.02a28.019,28.019,0,0,0-10.81-11.87c-5.55-3.1-12-3.27-19.12-.55-3.86,1.48-7.8,2.8-11.75,4.11-22.64,7.59-36.3,13.27-32.31,33.16.38,1.82.76,3.56,1.15,5.17,0,.04.04.13.04.17a3.758,3.758,0,0,0,.17.72c2.42,10.18,4.92,15.6,7.04,18.4a3.091,3.091,0,0,0,.34.42c0,.04.04.08.08.13a7.678,7.678,0,0,0,2.29,1.91,3.588,3.588,0,0,0,2.16.34h.04a8.663,8.663,0,0,0,3.31-1.06,3.911,3.911,0,0,0,.59-.38.039.039,0,0,1,.04-.04.667.667,0,0,1,.25-.25c0-.04,0-.04.04-.04a9.5,9.5,0,0,0,1.78-4.16c1.65-7.89-1.48-20.65-6.62-26.76a4.246,4.246,0,1,1,6.53-5.43c6.83,8.18,10.6,23.41,8.4,33.92a3.892,3.892,0,0,1-.13.47c-1.1,4.92-3.31,7.68-5.43,9.24h-.04a14.1,14.1,0,0,1-1.65,1.02,19.285,19.285,0,0,1-3.35,1.31,13.693,13.693,0,0,1-4.24.68,11.961,11.961,0,0,1-5.39-1.27c-.25-.13-.42-.25-.64-.38h-.04a11.341,11.341,0,0,1-2.54-1.82,23.417,23.417,0,0,1-5.22-7.08,68.628,68.628,0,0,1-4.83-13.02c-.68-2.54-1.36-5.3-1.95-8.31-.21-.72-.34-1.48-.51-2.25-5.68-28.2,17.51-36,37.95-42.83,3.82-1.31,7.63-2.59,11.41-4.03,9.46-3.6,18.53-3.22,26.25,1.06a33.078,33.078,0,0,1,9.63,8.31,41.269,41.269,0,0,1,5.51,8.9c-.04,0-.04,0,0,.04a38.78,38.78,0,0,1,2.59,7.97C866.81,805.69,865.24,813.02,861.04,818.11Z" fill="#0b0b0b"/>
        </g>
        <g id="Group_452" data-name="Group 452">
          <path id="Path_344" data-name="Path 344" d="M850.78,824.34v.04a14.285,14.285,0,0,1-2.84,7.84c-4.07,5.3-11.41,6.53-18.06,6.53-1.06,0-2.12-.04-3.14-.08-.98-.04-1.91-.13-2.8-.17a4.235,4.235,0,0,1-3.86-4.58,4.8,4.8,0,0,1,.42-1.57v-.04a4.463,4.463,0,0,1,4.16-2.29c1.78.17,3.35.25,4.79.25,7.51.04,10.56-1.65,11.75-3.22a6.693,6.693,0,0,0,1.14-4.11,17.964,17.964,0,0,0-.42-3.56v-.04a39.9,39.9,0,0,0-1.27-4.24c-2.33-6.53-6.95-12.42-11.45-18.11l3.18-2.88,3.31-2.59c5.09,6.45,10.13,12.89,12.98,20.74a35.528,35.528,0,0,1,2.11,12.08Z" fill="#0b0b0b"/>
        </g>
        <g id="Group_453" data-name="Group 453">
          <path id="Path_345" data-name="Path 345" d="M829.45,830.28a16.639,16.639,0,0,1-1.82,6.91,9.677,9.677,0,0,1-.89,1.48c-5.94,9.16-19.59,10.77-24.34,11.07h-.04c-.89.04-1.48.04-1.61.04a4.241,4.241,0,0,1-3.22-7,.039.039,0,0,1,.04-.04.667.667,0,0,1,.25-.25c0-.04,0-.04.04-.04a4.1,4.1,0,0,1,2.88-1.14,36.5,36.5,0,0,0,7.08-.81c4.79-1.02,10.18-3.1,12.26-7.17a6.153,6.153,0,0,0,.42-.98v-.04c1.82-5.13-.85-12.85-7.8-22.56a4.265,4.265,0,0,1,.98-5.94,4.2,4.2,0,0,1,5.89.98C826.65,814.68,829.96,823.2,829.45,830.28Z" fill="#0b0b0b"/>
        </g>
        <g id="Group_454" data-name="Group 454">
          <path id="Path_346" data-name="Path 346" d="M901.33,782.15c-1.44,6.45-5.81,13.78-10.69,20.99,0,.04-.04.08-.04.13-1.61,2.42-3.31,4.83-4.96,7.17-4.79,6.83-9.29,13.27-10.69,17.47a74.3,74.3,0,0,1-6.28,13.7v.04c-8.65,14.8-24.21,30.53-47.24,30.53-19.93,0-30.36-12-34.35-21.07h-.04a24.169,24.169,0,0,1-.93-2.42c-.25-.76-.47-1.44-.64-2.12a4.19,4.19,0,0,1,3.1-5.13h.12a4.168,4.168,0,0,1,4.88,2.8h.04c.04.08.04.21.08.3a24.727,24.727,0,0,0,3.65,7.55c3.73,5.34,10.9,11.62,24.09,11.62,25.82,0,41.05-25.19,45.5-38.46,1.78-5.39,6.62-12.34,11.75-19.68,1.4-2.04,2.93-4.2,4.45-6.4,0-.04.04-.08.04-.13,4.83-7.17,9.46-14.8,10.05-19.93a.179.179,0,0,1,.04-.13c.17-1.95-.21-3.56-1.48-4.58-4.45-3.6-9.8-2.63-13.48-1.14-7.46,2.97-14.04,10.13-15.56,16.79-.04,0-.04,0,0,.04a5.968,5.968,0,0,0-.25,1.23,4.23,4.23,0,0,1-4.75,3.65,4.056,4.056,0,0,1-2.88-1.7c0-.04-.04-.08-.04-.13l-.51-1.02a4.051,4.051,0,0,1-.21-1.91,25.5,25.5,0,0,1,3.14-9.07,35.364,35.364,0,0,1,10.52-11.7,33.482,33.482,0,0,1,7.42-4.07c8.23-3.26,16.03-2.42,22.01,2.46a12.1,12.1,0,0,1,2.04,2.08c.08.08.17.21.25.3C902.01,773.54,902.35,777.66,901.33,782.15Z" fill="#0b0b0b"/>
        </g>
        <g id="Group_455" data-name="Group 455">
          <path id="Path_347" data-name="Path 347" d="M789.89,844.32a4.245,4.245,0,0,1-3.05,4.11l-.72.25-1.61.59-55.76,20.82a4.738,4.738,0,0,1-1.48.25,4.269,4.269,0,0,1-3.82-2.37L713.36,847.4a4.075,4.075,0,0,1-.13-3.43,4.337,4.337,0,0,1,2.46-2.42l56.82-20.69,3.52-1.27a4.25,4.25,0,0,1,5.43,2.54c0,.04.04.13.04.17a3.758,3.758,0,0,0,.17.72,4.225,4.225,0,0,1-2.76,4.54l-4.45,1.61-51.44,18.74,6.36,12.89,49.91-18.62,4.88-1.82a4.3,4.3,0,0,1,4.49,1.06,3.985,3.985,0,0,1,.38.42c0,.04.04.08.08.13A4.006,4.006,0,0,1,789.89,844.32Z" fill="#0b0b0b"/>
        </g>
        <g id="Group_456" data-name="Group 456">
          <path id="Path_348" data-name="Path 348" d="M1247.39,653.62a4.277,4.277,0,0,1-2.8,4.33l-4.24,1.53L1068.4,722.11l-6.74,2.46a4.309,4.309,0,0,1-3.48-.26c-.04-.04-.08-.04-.13-.08-.38-.34-.72-.64-1.1-.93l-.08-.08a5.251,5.251,0,0,1-.64-1.14,4.275,4.275,0,0,1,2.54-5.47l2.29-.85,170.68-62.12h.04l6.74-2.5,3.18-1.14a4.322,4.322,0,0,1,5.09,1.82,5.842,5.842,0,0,1,.34.72.787.787,0,0,1,.08.3c.04.21.08.47.13.68C1247.35,653.54,1247.39,653.58,1247.39,653.62Z" fill="#0b0b0b"/>
        </g>
        <g id="Group_457" data-name="Group 457">
          <path id="Path_349" data-name="Path 349" d="M1256.85,673.17l-1.48.55-7.89,2.97-2.16.81-7.63,2.84-154.65,57.67-5.64,2.12a4.383,4.383,0,0,1-1.48.25,4.216,4.216,0,0,1-2.29-.68c-.04,0-.04,0-.08-.04a4.079,4.079,0,0,1-1.48-1.7l-.04-.04a4.145,4.145,0,0,1-.38-1.78,4.23,4.23,0,0,1,3.1-4.07l2.54-.93,163.17-60.89,5.77-2.16,3.9-1.44,3.77-1.4a4.226,4.226,0,1,1,2.95,7.92Z" fill="#0b0b0b"/>
        </g>
        <g id="Group_458" data-name="Group 458">
          <path id="Path_350" data-name="Path 350" d="M1375.58,624.45a12.854,12.854,0,0,1-7.55,7.25l-76.84,28.67-5.68,2.12-1.48.55a4.118,4.118,0,0,1-1.02.21,1.87,1.87,0,0,1-.47.04,4.221,4.221,0,0,1-1.95-7.98,1.682,1.682,0,0,1,.47-.21l7.63-2.84.08-.04,76.33-28.45a4.484,4.484,0,0,0,2.63-2.54,4.594,4.594,0,0,0-5.77-6.02l-74.38,27.05-1.74.64-2.46.89a4.071,4.071,0,0,1-1.87.21,4.186,4.186,0,0,1-3.18-1.95.213.213,0,0,1-.08-.17,2.727,2.727,0,0,1-.3-.59,4.278,4.278,0,0,1,2.54-5.47l3.1-1.1,75.44-27.48a13.182,13.182,0,0,1,4.49-.81,13.143,13.143,0,0,1,12.06,18.02Z" fill="#0b0b0b"/>
        </g>
        <g id="Group_459" data-name="Group 459">
          <path id="Path_351" data-name="Path 351" d="M1456.91,811.96c-1.1,36.72-16.62,71.83-40.5,91.64-29.85,24.76-73.23,39.44-111.95,39.44a131.761,131.761,0,0,1-29.98-3.27c-1.4-.34-2.8-.68-4.16-1.1-28.33-7.8-49.36-25.78-60.94-52.16a96.955,96.955,0,0,1-4.37-12c-.81-2.67-1.44-5.39-2.04-8.14-6.32-30.06-.3-63.27,7.55-95.16,4.5-18.19,10.22-36.3,15.77-53.77,3.86-12.17,7.8-24.59,11.36-37.1.93-3.35,1.87-6.74,2.76-10.09.59-2.37,1.23-4.79,1.78-7.17.17-.55.3-1.14.42-1.7a4.264,4.264,0,0,1,5.13-3.14,4.118,4.118,0,0,1,2.29,1.4c.17.25.34.47.47.64a4.391,4.391,0,0,1,.38,3.05c-.25,1.1-.55,2.21-.81,3.31-.3,1.31-.64,2.59-.98,3.9-.55,2.04-1.06,4.11-1.65,6.15-3.94,14.67-8.57,29.17-13.06,43.29-5.51,17.39-11.24,35.32-15.65,53.26-7.42,30.15-13.15,61.32-7.89,89.26.55,2.88,1.19,5.68,1.99,8.48a88.7,88.7,0,0,0,4.28,12.09c10.26,23.41,28.79,39.56,53.77,46.94,1.78.55,3.65,1.06,5.51,1.48,2.25.51,4.54.98,6.91,1.4,41.09,6.91,93.59-7.59,127.68-35.83,22.05-18.32,36.38-51.01,37.4-85.36.93-30.32-8.82-57.33-26.76-74.12a56.673,56.673,0,0,0-13.27-9.29c-22.35-11.03-42.96-19.08-61.1-26.21-31.38-12.26-54.79-21.37-63.44-37.15-.3-.55-.59-1.15-.85-1.7a30.237,30.237,0,0,1-2.42-7.93,32.718,32.718,0,0,1-.34-3.6v-.17c-.04-1.02-.04-2.12,0-3.22,0-.59.08-1.23.13-1.82a3.974,3.974,0,0,1,1.15-2.5,4.063,4.063,0,0,1,3.43-1.31,3.2,3.2,0,0,1,.89.21,3.851,3.851,0,0,1,2.46,2.04,3.711,3.711,0,0,1,.51,2.33c-.04.47-.08.93-.08,1.4-.04,1.02-.04,2.08,0,3.05a2.193,2.193,0,0,1,.04.51,21.326,21.326,0,0,0,2.42,8.14c6.53,12.68,26.29,20.99,59.2,33.84,18.32,7.17,39.1,15.31,61.74,26.5a64.088,64.088,0,0,1,15.35,10.69C1447.16,749.88,1457.89,779.23,1456.91,811.96Z" fill="#0b0b0b"/>
        </g>
        <g id="Group_460" data-name="Group 460">
          <path id="Path_352" data-name="Path 352" d="M943.1,757.3c-.04.04-.21.25-.51.64a.039.039,0,0,0-.04.04c-6.02,7.42-58.77,73.32-74.17,121.36-.04.08-.04.17-.08.25a79.686,79.686,0,0,0-4.07,20.86v.08c-.04.76-.04,1.48-.04,2.21a4.005,4.005,0,0,1-.76,2.42v.04a4.311,4.311,0,0,1-3.43,1.82h-.04a4.221,4.221,0,0,1-4.24-4.2c0-.93,0-1.91.04-2.88v-.17a85.942,85.942,0,0,1,4.07-21.2.894.894,0,0,1,.08-.3c4.24-13.91,11.45-29.09,19.76-43.93,0-.04.04-.04.04-.08,20.1-35.83,46.73-69.8,54.66-79.64,1.19-1.44,1.95-2.37,2.2-2.71a4.234,4.234,0,1,1,6.53,5.39Z" fill="#0b0b0b"/>
        </g>
        <g id="Group_464" data-name="Group 464">
          <g id="Group_461" data-name="Group 461">
            <path id="Path_353" data-name="Path 353" d="M1258.97,633.65a4.231,4.231,0,0,1-5.98-.42q-1.71-2.04-3.56-3.94c-41.43-44.57-105.54-56.78-126.75-59.71,9.03,18.95,41.13,72.47,116.23,76.03,1.27.08,2.59.13,3.9.17a4.469,4.469,0,0,1,4.2,3.22v.04a4.458,4.458,0,0,1,.13,1.02,3.465,3.465,0,0,1-.13.98v.12a4.349,4.349,0,0,1-.21.64,3.953,3.953,0,0,1-3.69,2.46h-.38c-1.31-.04-2.59-.08-3.86-.13-2.42-.13-4.75-.3-7.08-.51h-.04c-89.94-8.14-119.54-86.84-119.83-87.65a4.213,4.213,0,0,1,4.28-5.68c3.35.21,74.29,5.94,126.24,50.55h.04c3.52,3.01,6.91,6.19,10.13,9.54,1.74,1.7,3.39,3.48,4.92,5.26.68.68,1.27,1.36,1.87,2.04A4.23,4.23,0,0,1,1258.97,633.65Z" fill="#0b0b0b"/>
          </g>
          <g id="Group_462" data-name="Group 462">
            <path id="Path_354" data-name="Path 354" d="M1278.26,629.58c-.25,1.02-.55,2.04-.85,3.05a4.266,4.266,0,0,1-4.07,3.01,4.014,4.014,0,0,1-1.23-.17,4.206,4.206,0,0,1-2.84-5.26c.42-1.48.85-2.97,1.19-4.41,10.98-42.96-9.71-68.4-19.68-77.73-6.95,29.22-2.84,48.17,0,61.02a67.873,67.873,0,0,1,1.82,11.28,15.2,15.2,0,0,1,0,1.91,4.226,4.226,0,1,1-8.43-.6c.13-2.37-.68-6.06-1.7-10.77v-.08h-.04c-2.93-13.7-7.93-36.64,1.87-71.45a4.223,4.223,0,0,1,6.49-2.33C1251.25,537.35,1294.8,568.26,1278.26,629.58Z" fill="#0b0b0b"/>
          </g>
          <g id="Group_463" data-name="Group 463">
            <path id="Path_355" data-name="Path 355" d="M1247.39,653.62a4.277,4.277,0,0,1-2.8,4.33l-4.24,1.53a20.2,20.2,0,0,0,1.87,3.6c.17-.55.3-1.14.42-1.7a4.264,4.264,0,0,1,5.13-3.14,4.118,4.118,0,0,1,2.29,1.4A16.131,16.131,0,0,1,1247.39,653.62Zm-.38-2.46a4.349,4.349,0,0,1-.21.64,5.842,5.842,0,0,1,.34.72.787.787,0,0,1,.08.3A11.6,11.6,0,0,1,1247.01,651.16Zm.38,2.46a4.277,4.277,0,0,1-2.8,4.33l-4.24,1.53a20.2,20.2,0,0,0,1.87,3.6c.17-.55.3-1.14.42-1.7a4.264,4.264,0,0,1,5.13-3.14,4.118,4.118,0,0,1,2.29,1.4A16.131,16.131,0,0,1,1247.39,653.62Zm-.38-2.46a4.349,4.349,0,0,1-.21.64,5.842,5.842,0,0,1,.34.72.787.787,0,0,1,.08.3A11.6,11.6,0,0,1,1247.01,651.16Zm41.73-2.5a18.617,18.617,0,0,0-.42-3.73,20.346,20.346,0,0,0-.72-2.67,23.9,23.9,0,0,0-3.99-7.55,25.6,25.6,0,0,0-13.14-8.9,23.9,23.9,0,0,0-6.78-.98,22.32,22.32,0,0,0-6.15.81,24.058,24.058,0,0,0-8.1,3.65,24.917,24.917,0,0,0-10.52,16.33,21.682,21.682,0,0,0-.42,4.41,9.74,9.74,0,0,0,.04,1.1,17.564,17.564,0,0,0,.34,3.01,20.524,20.524,0,0,0,1.48,5.34,20.2,20.2,0,0,0,1.87,3.6,22.453,22.453,0,0,0,3.99,5,20.414,20.414,0,0,0,2.93,2.46,23.957,23.957,0,0,0,6.23,3.18,24.553,24.553,0,0,0,8.31,1.44,25,25,0,0,0,20.18-10.22,17.058,17.058,0,0,0,1.65-2.46,24.689,24.689,0,0,0,3.18-10.22,2.368,2.368,0,0,0,.04-.55,11.753,11.753,0,0,0,.08-1.7A7.722,7.722,0,0,0,1288.74,648.66Zm-25.06,18.02a16.786,16.786,0,0,1-13.15-6.4c-.13-.17-.3-.38-.47-.64a16.2,16.2,0,0,1-2.67-6.02c0-.04-.04-.08-.04-.13-.04-.21-.08-.47-.13-.68a10.335,10.335,0,0,1-.21-1.65v-.12a8.689,8.689,0,0,1-.04-1.02,7.7,7.7,0,0,1,.04-.98V649a16.7,16.7,0,0,1,31.25-7.12.23.23,0,0,0,.08.17,16.6,16.6,0,0,1,1.91,6.28c.04.55.08,1.1.08,1.7,0,.51-.04,1.02-.08,1.53v.17A16.711,16.711,0,0,1,1263.68,666.68Zm-16.67-15.52a4.349,4.349,0,0,1-.21.64,5.842,5.842,0,0,1,.34.72.787.787,0,0,1,.08.3A11.6,11.6,0,0,1,1247.01,651.16Zm.38,2.46a4.277,4.277,0,0,1-2.8,4.33l-4.24,1.53a20.2,20.2,0,0,0,1.87,3.6c.17-.55.3-1.14.42-1.7a4.264,4.264,0,0,1,5.13-3.14,4.118,4.118,0,0,1,2.29,1.4A16.131,16.131,0,0,1,1247.39,653.62Z" fill="#0b0b0b"/>
          </g>
        </g>
        <g id="Group_465" data-name="Group 465">
          <path id="Path_356" data-name="Path 356" d="M914.47,1227.4c-.21.13-.42.21-.64.34a3.784,3.784,0,0,1-.72.21,4.234,4.234,0,0,1-5-3.27l-.68-3.18-5.26-24.72-45.42,23.45,9.67,27.39,2.04,5.77a4.321,4.321,0,0,1-.85,4.24,8.2,8.2,0,0,1-.59.59,7.264,7.264,0,0,1-1.15.59,4.382,4.382,0,0,1-5.43-2.59l-.93-2.67-12-34.01a4.284,4.284,0,0,1,2.08-5.17l53.6-27.65a4.176,4.176,0,0,1,3.77-.08,4.317,4.317,0,0,1,2.33,2.97l5.94,27.94,1.14,5.34A4.244,4.244,0,0,1,914.47,1227.4Z" fill="#0b0b0b"/>
        </g>
        <g id="Group_466" data-name="Group 466">
          <path id="Path_357" data-name="Path 357" d="M870.29,559.23a4.246,4.246,0,0,0-3.94-3.48,131.1,131.1,0,0,0-14.16.38h-.04a23.6,23.6,0,0,0-3.01.3,76.439,76.439,0,0,0-7.84,1.1,73.013,73.013,0,0,0-12.21,3.22,44.009,44.009,0,0,0-7.89,3.73,4.274,4.274,0,0,0-1.99,4.41l2.46,12.89a4.2,4.2,0,0,0,2.67,3.14,3.628,3.628,0,0,0,1.48.3,4.11,4.11,0,0,0,2.59-.89,86.454,86.454,0,0,1,17.55-9.92c6.45-2.67,13.91-4.62,20.91-3.77a4.131,4.131,0,0,0,3.6-1.31,4.2,4.2,0,0,0,1.06-3.69Zm-32.65,9.67a85.371,85.371,0,0,0-8.86,4.92l-.64-3.48a50.3,50.3,0,0,1,9.84-3.43c2.59-.64,5.26-1.15,7.84-1.53A73.664,73.664,0,0,0,837.64,568.9Z" fill="#0b0b0b"/>
          <path id="Path_358" data-name="Path 358" d="M837.98,566.91c-.13.68-.25,1.36-.34,1.99a85.371,85.371,0,0,0-8.86,4.92l-.64-3.48A50.312,50.312,0,0,1,837.98,566.91Z" fill="#0b0b0b"/>
        </g>
        <g id="Group_467" data-name="Group 467">
          <path id="Path_359" data-name="Path 359" d="M859.18,607.06a8.055,8.055,0,0,1-8.06,8.06,7.946,7.946,0,0,1-4.92-1.7v-.04a7.828,7.828,0,0,1-3.14-6.32,8.02,8.02,0,0,1,2.5-5.81,7.916,7.916,0,0,1,5.55-2.25A8.07,8.07,0,0,1,859.18,607.06Z" fill="#0b0b0b"/>
        </g>
        <g id="Group_468" data-name="Group 468">
          <path id="Path_360" data-name="Path 360" d="M924.1,605.75a9.957,9.957,0,0,1-9.96,9.97,9.648,9.648,0,0,1-5.85-1.91,9.974,9.974,0,0,1,5.85-18.06A9.944,9.944,0,0,1,924.1,605.75Z" fill="#0b0b0b"/>
        </g>
        <g id="Group_472" data-name="Group 472">
          <g id="Group_469" data-name="Group 469">
            <path id="Path_361" data-name="Path 361" d="M1024.3,519.58c-1.02-.3-2.08-.59-3.14-.89-1.7-.47-3.43-.93-5.26-1.4-.08,0-.13-.04-.21-.04-7.55-1.99-15.05-3.65-22.9-5.22h-.04l-1.99-.38c-2.76-.51-5.39-.98-8.1-1.4h-.04c-52.79-8.65-93.63-3.01-116.36,2.29-1.95.47-3.82.89-5.51,1.36-1.06.25-2.08.55-3.1.85-26.29,7.21-44.82,18.11-46.52,27.39a12.407,12.407,0,0,0,2.54,10.47c3.31,4.2,9.29,6.62,15.39,8.14a73.011,73.011,0,0,0,10.18,1.65c2.37.25,4.49.38,6.11.42h.17a4.3,4.3,0,0,0,3.73-2.2v-.04c.08-.17.17-.34.25-.51a4.41,4.41,0,0,0,.25-1.31,4,4,0,0,0-.64-2.33,4.114,4.114,0,0,0-3.48-2.08c-.81-.04-1.65-.08-2.5-.13-9.46-.59-19.68-2.88-22.86-6.91a4.154,4.154,0,0,1-.85-3.6c.72-3.82,14.12-13.99,43.25-21.58.04,0,.13-.04.17-.04,21.5-5.6,66.53-13.27,126.32-2.08,8.48,1.57,16.5,3.39,24.59,5.47,1.74.47,3.43.93,5.13,1.4.13.04.25.04.38.08a260.77,260.77,0,0,1,28.62,9.29,7.125,7.125,0,0,1,1.31.51c7.29,3.01,11.11,5.39,13.1,7.04.17.17.34.3.51.47,1.7,1.53,1.65,2.33,1.65,2.37-.21,3.18-15.77,8.74-35.2,11.24-4.16-4.41-16.24-13.44-48.26-18.74-.13-.04-.3-.04-.42-.08a.4.4,0,0,0-.21-.04c-8.01-1.31-16.88-2.29-26.33-2.93-30.83-2.16-85.4-3.73-104.23,10.18a6.073,6.073,0,0,0-1.53,1.4.923.923,0,0,0-.17.25,4.227,4.227,0,0,0,6.49,5.34l.04-.04h.04a1.569,1.569,0,0,1,.34-.21l.04-.04c12.76-8.86,48.51-11.92,98.38-8.44,8.44.59,16.37,1.44,23.58,2.59h.04c.72.08,1.4.17,2.12.3a2,2,0,0,0,.21.04c2.5.42,4.88.85,7.08,1.31,27.22,5.47,35.45,13.53,37.02,15.31.04,0,.04,0,.04.04a3.649,3.649,0,0,1,.25.34,4.156,4.156,0,0,0,3.69,2.12h.47c1.36-.13,2.88-.34,4.54-.55,14.63-1.99,39.52-7.12,40.45-18.74C1073.53,540.4,1068.02,531.8,1024.3,519.58Z" fill="#0b0b0b"/>
          </g>
          <g id="Group_470" data-name="Group 470">
            <path id="Path_362" data-name="Path 362" d="M1024.3,519.58a25.768,25.768,0,0,1-.04,3.52,4.249,4.249,0,0,1-4.24,3.9h-.3a1.332,1.332,0,0,1-.42-.04c-.13-.04-.25-.04-.38-.08a4.3,4.3,0,0,1-3.14-4.41,31.524,31.524,0,0,0-.08-5.22c-1.23-10.64-8.06-22.43-16.24-30.87a54.02,54.02,0,0,0-8.06-6.87,25.638,25.638,0,0,0-9.84-4.33c-7.59-1.23-13.31.85-19.38,3.1-6.19,2.29-12.55,4.62-20.61,3.31a37.232,37.232,0,0,1-12.64-4.45c-5.39-2.76-11.49-5.94-32.95-7.85-6.62-.59-11.96,1.15-16.41,5.26-10.22,9.46-12.72,28.62-13.31,37.99-.21,3.27-.21,5.3-.21,5.39a4.2,4.2,0,0,1-3.18,4.16c-.04,0-.13.04-.17.04a6.111,6.111,0,0,1-.85.08h-.04a4.206,4.206,0,0,1-4.24-4.16c0-.25,0-1.44.08-3.31.34-8.95,2.5-33.8,16.16-46.43,6.23-5.77,13.95-8.27,22.9-7.46,23.15,2.08,30.32,5.77,36.13,8.78a30.552,30.552,0,0,0,10.09,3.6c5.89.93,10.69-.85,16.33-2.93,6.49-2.37,13.87-5.13,23.66-3.48,6.49,1.06,13.74,5.39,20.27,11.58.04,0,.08.08.08.08a18.525,18.525,0,0,1,1.44,1.36C1015.35,490.41,1023.92,505.72,1024.3,519.58Z" fill="#0b0b0b"/>
          </g>
          <g id="Group_471" data-name="Group 471">
            <path id="Path_363" data-name="Path 363" d="M1005.35,482.27a4.087,4.087,0,0,1-4.37,4.07h-.17c-.21,0-.72,0-1.36.04-2.59.21-7.93,1.06-10.26,4.92-2.54,4.11-1.31,11.28,3.56,20.74h.04c.25.55.55,1.15.89,1.74a4.236,4.236,0,1,1-7.43,4.07,66.47,66.47,0,0,1-3.6-7.59h-.04c-4.03-9.8-4.24-17.64-.64-23.45a17.785,17.785,0,0,1,9.41-7.29,27.134,27.134,0,0,1,9.88-1.65,4.121,4.121,0,0,1,1.91.55c.04,0,.08.08.08.08a3.676,3.676,0,0,1,1.44,1.36A4.019,4.019,0,0,1,1005.35,482.27Z" fill="#0b0b0b"/>
          </g>
        </g>
        <g id="Group_473" data-name="Group 473">
          <path id="Path_364" data-name="Path 364" d="M1026.93,601.51h-.04a62.466,62.466,0,0,1-4.37,8.01,4.271,4.271,0,0,1-1.57,1.48,4.4,4.4,0,0,1-.98.38,4.8,4.8,0,0,1-1.06.13,3.981,3.981,0,0,1-2.25-.68,4.2,4.2,0,0,1-1.31-5.85c.25-.38.47-.76.68-1.14,11.32-18.7,8.31-36.26,7.55-39.73,0-.04,0-.04-.04-.04a2.228,2.228,0,0,0-.13-.59,4.252,4.252,0,0,1,8.19-2.29,34.89,34.89,0,0,1,.93,4.83A64.806,64.806,0,0,1,1026.93,601.51Z" fill="#0b0b0b"/>
        </g>
        <g id="Group_474" data-name="Group 474">
          <path id="Path_365" data-name="Path 365" d="M956.54,553.89c-16.45-9.92-44.06-8.61-45.2-8.52a4.2,4.2,0,0,0-3.94,3.43l-1.19,6.45a4.186,4.186,0,0,0,4.71,4.96c17.51-2.16,38.29,13.4,38.46,13.57a4.5,4.5,0,0,0,2.59.85,3.793,3.793,0,0,0,1.53-.3,4.147,4.147,0,0,0,2.63-3.18l2.42-12.85A4.32,4.32,0,0,0,956.54,553.89Zm-7.55,9.37a88.84,88.84,0,0,0-17.09-8.4c6.02.85,12.42,2.33,17.73,4.92Z" fill="#0b0b0b"/>
        </g>
        <g id="Group_475" data-name="Group 475">
          <path id="Path_366" data-name="Path 366" d="M923.72,566.14c-14.04,0-25.02,16.5-25.02,37.53s10.98,37.53,25.02,37.53,25.06-16.5,25.06-37.53S937.75,566.14,923.72,566.14Zm0,66.58c-6.91,0-13.06-7.97-15.44-18.91a45.587,45.587,0,0,1-1.1-10.13,43.39,43.39,0,0,1,.3-5.39c1.48-13.27,8.35-23.66,16.24-23.66,8.99,0,16.58,13.32,16.58,29.05C940.3,619.45,932.71,632.72,923.72,632.72Z" fill="#0b0b0b"/>
        </g>
        <g id="Group_476" data-name="Group 476">
          <path id="Path_367" data-name="Path 367" d="M949.63,559.78l-.64,3.48a88.84,88.84,0,0,0-17.09-8.4A61.033,61.033,0,0,1,949.63,559.78Z" fill="#0b0b0b"/>
          <path id="Path_368" data-name="Path 368" d="M883.69,620.25a33.358,33.358,0,0,1-3.05,10.13,4.147,4.147,0,0,1-2.5,2.08,1.125,1.125,0,0,1-.3.08,4.122,4.122,0,0,1-.98.13,4.347,4.347,0,0,1-1.95-.47,4.271,4.271,0,0,1-1.82-5.72,12.968,12.968,0,0,0,.72-1.7c1.78-4.71,2.59-12.51,1.95-19.51-.81-8.44-4.24-15.86-9.2-19.85a10.829,10.829,0,0,0-8.1-2.59c-3.69.47-6.95,3.18-9.33,7.25a31.319,31.319,0,0,0-3.56,11.15,39.285,39.285,0,0,0-.13,8.35,19.576,19.576,0,0,0,.76,3.77v.04c.59,2.42,1.48,5.17,2.29,7.46h.04c.25.81.51,1.48.76,2.12a4.159,4.159,0,0,1-2.37,5.47,3.9,3.9,0,0,1-2.2.25,4.21,4.21,0,0,1-3.31-2.63c-.55-1.53-1.44-3.9-2.25-6.45a48.884,48.884,0,0,1-2.16-9.24,41.727,41.727,0,0,1,3.77-22.56v-.04a26.021,26.021,0,0,1,6.15-8.35,19,19,0,0,1,10.43-5.05,18.737,18.737,0,0,1,14.46,4.41c6.74,5.39,11.36,14.97,12.38,25.7A64.505,64.505,0,0,1,883.69,620.25Z" fill="#0b0b0b"/>
        </g>
      </g>
      <g id="Group_478" data-name="Group 478">
        <path id="Path_369" data-name="Path 369" d="M1317.53,912.76a4.231,4.231,0,0,1-2.08,2.59l-32.1,17.56-9.88,5.39a4.526,4.526,0,0,1-2.04.51,4.362,4.362,0,0,1-1.1-.13,4.277,4.277,0,0,1-2.63-2.08,4.159,4.159,0,0,1,1.7-5.72l1.53-.85,36.64-20.02-39.01-66.07-55.68,27.05-6.45,3.14a4.3,4.3,0,0,1-1.4.38c-.81-2.67-1.44-5.39-2.04-8.14l7.89-3.86,57.46-27.9a4.209,4.209,0,0,1,5.51,1.65l43.21,73.19A4.3,4.3,0,0,1,1317.53,912.76Z" fill="#0b0b0b"/>
      </g>
    </g>
  </g>
</svg>
