<svg id="medium" xmlns="http://www.w3.org/2000/svg" width="15.414" height="15.414" viewBox="0 0 15.414 15.414">
  <path id="Path_307" data-name="Path 307" d="M15.414,1.889A1.89,1.89,0,0,0,13.525,0H1.889A1.89,1.89,0,0,0,0,1.889V13.525a1.89,1.89,0,0,0,1.889,1.889H13.525a1.89,1.89,0,0,0,1.889-1.889ZM8.536,7.707A3.651,3.651,0,1,1,4.885,4.031,3.664,3.664,0,0,1,8.536,7.707Zm4.005,0c0,1.911-.817,3.461-1.826,3.461S8.89,9.618,8.89,7.707s.817-3.461,1.825-3.461S12.541,5.8,12.541,7.707Zm1.638,0c0,1.712-.287,3.1-.642,3.1s-.642-1.388-.642-3.1.287-3.1.642-3.1S14.18,5.995,14.18,7.707Z" fill="#fff" fill-rule="evenodd"/>
</svg>
