<svg id="Options" xmlns="http://www.w3.org/2000/svg" width="14" height="14" viewBox="0 0 14 14">
  <rect id="Rectangle_449" data-name="Rectangle 449" width="14" height="14" fill="none"/>
  <path id="Union_1" data-name="Union 1" d="M0,11.7a1.411,1.411,0,0,1,1.5-1.3A1.411,1.411,0,0,1,3,11.7,1.411,1.411,0,0,1,1.5,13,1.411,1.411,0,0,1,0,11.7ZM0,6.5A1.411,1.411,0,0,1,1.5,5.2,1.41,1.41,0,0,1,3,6.5,1.41,1.41,0,0,1,1.5,7.8,1.411,1.411,0,0,1,0,6.5ZM0,1.3A1.411,1.411,0,0,1,1.5,0,1.41,1.41,0,0,1,3,1.3,1.41,1.41,0,0,1,1.5,2.6,1.411,1.411,0,0,1,0,1.3Z" transform="translate(6 1)" fill="#2e3e29"/>
</svg>
