<svg xmlns="http://www.w3.org/2000/svg" width="36" height="36.1" viewBox="0 0 36 36.1">
  <g id="_6777315_trashcan_bin_delete_garbage_remove_icon" data-name="6777315_trashcan_bin_delete_garbage_remove_icon" transform="translate(-6 -6)">
    <path id="Path_370" data-name="Path 370" d="M17.7,35.1h0a1,1,0,0,0,1-1l-.7-14a.865.865,0,0,0-1-.9.865.865,0,0,0-.9,1l.7,13.9A.919.919,0,0,0,17.7,35.1Z"/>
    <path id="Path_371" data-name="Path 371" d="M29.9,35.1h0a.923.923,0,0,0,1-.9l.7-13.9a.951.951,0,0,0-1.9-.1L29,34A1.088,1.088,0,0,0,29.9,35.1Z"/>
    <path id="Path_372" data-name="Path 372" d="M24,35.1a.945.945,0,0,0,1-1v-14a1,1,0,1,0-2,0V34A1.028,1.028,0,0,0,24,35.1Z"/>
    <path id="Path_373" data-name="Path 373" d="M41,11.6H7a1,1,0,0,0,0,2H9.1l2.3,23.9a4.99,4.99,0,0,0,4.9,4.6h15a4.919,4.919,0,0,0,4.9-4.6l2.3-23.9H41a1,1,0,0,0,0-2ZM34.3,37.3A2.861,2.861,0,0,1,31.4,40h-15a2.935,2.935,0,0,1-2.9-2.7L11.3,13.6H36.7Z"/>
    <path id="Path_374" data-name="Path 374" d="M18.6,8H29.9a.945.945,0,0,0,1-1,.945.945,0,0,0-1-1H18.6a.945.945,0,0,0-1,1A.945.945,0,0,0,18.6,8Z"/>
  </g>
</svg>
